/* XPM */
static char * autoSwitchOFF_xpm[] = {
"32 32 29 1",
" 	c None",
".	c #C6C6C6",
"+	c #BDBDBD",
"@	c #C6C6BD",
"#	c #BDBDC6",
"$	c #BDC6BD",
"%	c #C6BDBD",
"&	c #C6BDC6",
"*	c #BDC6C6",
"=	c #ADADAD",
"-	c #9CAD9C",
";	c #84947B",
">	c #7BA57B",
",	c #ADBDAD",
"'	c #7B9C7B",
")	c #94A58C",
"!	c #9CADA5",
"~	c #7B8C7B",
"{	c #8C9C8C",
"]	c #8CAD8C",
"^	c #A5B59C",
"/	c #ADB5B5",
"(	c #9C9C9C",
"_	c #8C8C84",
":	c #000000",
"<	c #7BA584",
"[	c #9CB59C",
"}	c #848C7B",
"|	c #7B9C84",
".+@#@#$%&$@#@&$#++.#$.+.+&$%*%$*",
"+%#$&$&.$+#@#$+=-*+$&+.+&$%*%*+&",
"$.+&$&++@#%#@+@;>,%+$$+.+*%$%*@+",
".+&$%+#@#@#$+#='>)#$&&.+.+@#$%+.",
"&$+&$$$&++.%*%''>>++*+%++.#&+*%+",
"*#@#%!-,+.+#+-~~~~{$&%$#.-]$.+&*",
"%*+.+='''-^+&/({'(=+$*-]'>-+&+$&",
"*%&$&+~'>'_#@++('$++._''>'=&+$&$",
"%*+%*@(~~'-+#.$-;$&@+=~~>>$%*%*&",
"+*%*++=~~~]+@#%-'#$+#,'~~-$#@#%$",
".+.+@#+_/=':::::::::::)=;=+&+$#&",
"+.+##@+*++=:]++=<&$=':#$&+#@+.%$",
".+.$%#.+.+$:']+-'+,'{:@#*%$#@+*&",
"+%#+${-#%$&:='](','{+:#@%=-+&#%$",
"*++)''{@+&$:&='''~{+.:.#$-~][+$&",
"+-~'~~'<'']:>'''''[)-:-]-{'''][+",
"+={~~~~-(-(:=('~'''{':{{~_~''~-+",
"@+&-_~)+$+.:+]~'''=+&:$+$(~~(,+.",
"+.+&*-+++#+:{'=~](',+:+@#={,+&#$",
"*#@#+%++.+@:'-+{-${',:$&+$&+.+$%",
"%$#@+*&++@(:::::::::::@#$%*%#@&+",
".#%%#+,',{',$&&'-$&+-'-={+@#*+$*",
"+@#$.+(~''=+#$+{]&+.+(''~-+@#%+.",
".+$&+*}~~'!%$&+{-+*%$=~~']$#@#@#",
"#@&+%,~~~~{+&$+;-+%#@~~~~'+++@#@",
"@#+@*(~~{=$+$=]|'-,$+==~~~^#@#.+",
"&$#%+==+#+&$+=~~~~-#+++%/--%#@#@",
"$&@+*++%+@+$&+~~~'++%*%*$&+*+$%#",
"&$#@#@##@+.+$+(~~=+*%#.+&$&#@+*%",
"+$%#@#%$+&+@#%/~~+*%*@+%*%*+.#%*",
".+*%+$#.#$&#$.+(=$+#%$#@+#@#+@+%",
"%*%+.#@%$&$$&+%+$#%.++.+&@#$@+&*"};
