/* XPM */
static char * autoSwitchON_xpm[] = {
"32 32 28 1",
" 	c None",
".	c #C6C6C6",
"+	c #BDBDBD",
"@	c #C6C6BD",
"#	c #BDBDC6",
"$	c #BDC6BD",
"%	c #C6BDBD",
"&	c #C6BDC6",
"*	c #BDC6C6",
"=	c #ADADAD",
"-	c #9CAD9C",
";	c #849C7B",
">	c #7BA57B",
",	c #ADBDAD",
"'	c #7B9C7B",
")	c #94A58C",
"!	c #7B8C7B",
"~	c #9CADA5",
"{	c #8C9C8C",
"]	c #8CAD8C",
"^	c #9CB59C",
"/	c #A5B59C",
"(	c #ADB5B5",
"_	c #9C9C9C",
":	c #8C8C84",
"<	c #000000",
"[	c #7B9C84",
"}	c #7BA584",
".+@#@#$%&$@#@&$#++.#$.+.+&$%*%$*",
"+%#$&$&.$+#@#$+=-*+$&+.+&$%*%*+&",
"$.+&$&++@#%#@+@;>,%+$$+.+*%$%*@+",
".+&$%+#@#@#$+#='>)#$&&.+.+@#$%+.",
"&$+&$$$&++.%*%!'>>++*+%++.#&+*%+",
"*#@#%~-,+.+#+-!!!!{$&%$#.-]$.+&*",
"%*+.+='''^/+&(_{'_=+$*-]'>-+&+$&",
"*%&$&+!''':*%+$_'$++.:''>'=&+$&$",
"%*+%*@_!!'~+*%+-'%#@+,!!'>$+.+*&",
"+*%*++=!!!]+%#$-{+.+#='!'-$&$&%$",
".+.+@#+:=='<<<<<<<<<<<_=!=+&+$#&",
"+@#$#&$+*+=<]$+='.+,'<$+*%#@+.+@",
".#%+@$&$&*+<{]+-'+=<{<&$%*$+.+.#",
"$%+*+{-&$+@<=']{[,<<.<$.+=-+#%+$",
"#$+)''_$+&+<#<'''<<<#<&+.-!]^+$&",
"+-!'!!'']'}<]<<'<<<)-<]-]{''']^+",
"+={!!!!-{-_<-<<<<<{]!<{{{!!''!-+",
"*%#_:!)+&+.<+-<<<'/#&<@++_!!_,+.",
"@$+.*-(%$&+<{'=<--',+<#@%=_,+&#+",
"+#.#%+%*+%*<'=#'-+_'^<$#+$+&+$+@",
".+%$+*&+$#]<<<<<<<<<<<&$@#@+.+.+",
"#%$&#+,'=]!,&$&'-.#%-'^={++$#%+*",
"@#&$$%_!'!,%#%$:]#@#+_'!'-&#@#@#",
"#@$+&*!!'!,+%*+{-++&$=!'!]$@#@+.",
".+&+@=!!!!'&$+@[-+@#%'!!!'++$#%+",
"+*+@#-!!{=&$%~-!'-=@#=~!!!,+#@&$",
"&%*+%==+#+@#$=!!'!-++%&+(-_$&+*%",
"+*+@#+++%$#$&+!!!'+#@#+.+%$#@$+.",
".+&$&$#%$%+*++_!!=+$&$&+.#%*+&$#",
"+%$#@#%*#%*%+&,!!+*%$&$&$%*%&*+@",
".+&$+@#@#*%*@+#_=++#$+&$#$+*%+&+",
"+.$#%#@+@%*+%*%$+$+.&%$+.%*%$*%*"};
