/* XPM */
static char * listDrivers_xpm[] = {
"32 32 99 2",
"  	c None",
". 	c #C6C6CE",
"+ 	c #BDBDBD",
"@ 	c #C6C6BD",
"# 	c #BDBDC6",
"$ 	c #C6BDC6",
"% 	c #BDC6BD",
"& 	c #ADB5AD",
"* 	c #C6BDBD",
"= 	c #BDC6C6",
"- 	c #9CAD9C",
"; 	c #8CAD8C",
"> 	c #6B8C6B",
", 	c #5A945A",
"' 	c #BDB594",
") 	c #5A8C5A",
"! 	c #7BA57B",
"~ 	c #5A6B5A",
"{ 	c #8C9C8C",
"] 	c #5A7B5A",
"^ 	c #ADADAD",
"/ 	c #7B8C7B",
"( 	c #6B7B6B",
"_ 	c #7B8C84",
": 	c #9C9C9C",
"< 	c #6B9C6B",
"[ 	c #7BA584",
"} 	c #B5AD94",
"| 	c #8C946B",
"1 	c #738C5A",
"2 	c #7B7B7B",
"3 	c #9C8C9C",
"4 	c #A55AA5",
"5 	c #CEADC6",
"6 	c #8C8C94",
"7 	c #946B00",
"8 	c #FFC618",
"9 	c #FFDE6B",
"0 	c #FFE79C",
"a 	c #5A6B63",
"b 	c #8C6B8C",
"c 	c #5A005A",
"d 	c #BD00BD",
"e 	c #CE4AC6",
"f 	c #B59CB5",
"g 	c #8C8C8C",
"h 	c #84847B",
"i 	c #312100",
"j 	c #D69C00",
"k 	c #FFCE4A",
"l 	c #9CA5A5",
"m 	c #7B9C7B",
"n 	c #C673C6",
"o 	c #CE18CE",
"p 	c #AD00AD",
"q 	c #840084",
"r 	c #9C399C",
"s 	c #7B6B7B",
"t 	c #6B6B6B",
"u 	c #4A3908",
"v 	c #AD7B00",
"w 	c #FFDE8C",
"x 	c #AD73AD",
"y 	c #9C6B9C",
"z 	c #6B006B",
"A 	c #8C188C",
"B 	c #7B107B",
"C 	c #7B317B",
"D 	c #5A5A5A",
"E 	c #9C739C",
"F 	c #7B527B",
"G 	c #6B8473",
"H 	c #525242",
"I 	c #FFE78C",
"J 	c #847384",
"K 	c #393100",
"L 	c #AD8C18",
"M 	c #FFDE73",
"N 	c #8C6300",
"O 	c #422900",
"P 	c #6B5200",
"Q 	c #E7A500",
"R 	c #9CB59C",
"S 	c #A58CA5",
"T 	c #4A4231",
"U 	c #635A42",
"V 	c #949442",
"W 	c #C6B563",
"X 	c #C6BDA5",
"Y 	c #7B9484",
"Z 	c #843184",
"` 	c #E7CE9C",
" .	c #4A004A",
"..	c #DEBD6B",
"+.	c #AD9CAD",
"@.	c #9C7B21",
"#.	c #B59C5A",
"$.	c #4A6B4A",
"%.	c #8CAD94",
". + @ # @ # @ # @ # @ # @ $ % $ & @ # @ # @ # @ # @ # @ # . + @ ",
"+ @ # @ # @ # @ # @ # * = * + - ; # @ + = + @ # * = + $ % + @ # ",
". + + # @ # @ # @ # % + $ % $ > , ' # = * + % * % * # % $ % * = ",
"+ % $ @ # @ # % # @ + $ % # - ) , ! = * # = * = # + . * # * = * ",
". * % + + $ % $ + $ = * + % ~ ) , , + + @ # . * % $ + = * % # @ ",
"+ % $ % $ % + * = @ + = * { ~ ~ ] ] > % # @ + % * ; ! * + = * # ",
"@ # + . + . * % + + * + + ^ / ( ) _ : * = + ; < ) , [ * . + @ % ",
"+ $ @ + . @ @ . . . + + ^ ^ } | 1 * + = + 2 ) , , ) - % + @ + $ ",
". % $ @ % . 3 4 5 + + ^ : 6 7 8 9 0 + * # } a ] ) < + + $ # . + ",
"+ * = @ . % b c d e f : g h i j k 0 + = + l ) ] ] m + $ % @ + = ",
"n n o o o o p c q q p r s t u v k w + + ^ ) / l ( ^ + % $ + @ * ",
"x y z A B z z c y b c C t D i v k w + - ) / # @ $ + % $ + . + = ",
"% @ % % . @ : b b E g { t D u v k w { ) > + % # % * # * % + . + ",
"$ + $ % @ = E F + + ^ g t D i v k w ] G * = * + + ^ { + . * + . ",
"= % + . @ . % * + + ^ g t H u v k I > * # * = * = { ] < ; + + * ",
"+ * # * = + * = + + : g t D i v k w m [ ! ! ! [ ! > ] , , < ; % ",
". + @ + * = * = @ + ^ J t D K L k M ( / ] ( / ( > ] ] ] ) ] { + ",
"+ + . @ = . @ . # + ^ { t D u N 8 M ; + # @ + % + g ~ ] h ^ + % ",
"@ . + . . * 3 4 5 + ^ 6 t a O P Q k ] R % + $ . + - g ^ @ % * # ",
"# % . @ @ . b c d e S : 2 t T U V ' G ) - + @ + @ + + # % # % . ",
"n n n n n n p c q q p r J s U L W X + Y ) - # @ + . + @ + $ + + ",
"x y y x y E z c z z c Z 2 2 u j 9 ` + + { ) ; : > & * = + + . @ ",
"% + + % @ . F  . .b 3 : h t i N 8 ..+ # + { ) ] ] ; # * % $ + + ",
"+ $ @ + . % E F +.+ ^ : g 2 T u @.#.+ + $ - ~ ] ) < * = $ % + . ",
". % * . @ @ % . % * + ^ g g _ H G ^ + % * ( ~ ~ ] ) + + % $ @ + ",
"+ * % + + # % @ # + + ^ - _ ] $.> m - $ + - { ( ~ ] - * + = + @ ",
". + $ % * = * + . + + + ^ g $.~ $.] { + % $ + + ^ { { % # * = + ",
"+ # % * = * # @ + + + + + + ~ ~ ] ( + + $ % $ % $ % + $ % * + . ",
"@ + . + + . % # * % $ + + + / ~ ] %.* $ % + % $ % $ % # @ # @ + ",
"# @ + % $ % + * % $ % * = * ^ ( ] * # % + % $ + $ % # @ # * % $ ",
"@ # * = * + . % * # # % * = # / - # * % $ * + = * + % # @ + # @ ",
"# % # @ + . + * = * % . # * % $ + * = * # % $ % # @ $ @ # % . + "};
