/* XPM */
static char * listDrivenNodes_xpm[] = {
"32 32 75 1",
" 	c None",
".	c #C6C6C6",
"+	c #BDBDBD",
"@	c #BDC6C6",
"#	c #C6BDBD",
"$	c #C6BDC6",
"%	c #BDC6BD",
"&	c #C6C6BD",
"*	c #B5ADB5",
"=	c #BDBDC6",
"-	c #AD9CAD",
";	c #A573A5",
">	c #8C5A8C",
",	c #8C4A8C",
"'	c #AD8CAD",
")	c #7B4A7B",
"!	c #9C6B94",
"~	c #6B4A6B",
"{	c #8C4A94",
"]	c #944A94",
"^	c #9C8C9C",
"/	c #5A4A5A",
"(	c #8C6B84",
"_	c #9C9C9C",
":	c #8C7B8C",
"<	c #7B6B73",
"[	c #9C7B9C",
"}	c #ADADAD",
"|	c #B5AD94",
"1	c #84737B",
"2	c #94637B",
"3	c #B5B5AD",
"4	c #8C6300",
"5	c #FFC618",
"6	c #FFD66B",
"7	c #FFE79C",
"8	c #8C8C8C",
"9	c #7B7B7B",
"0	c #393100",
"a	c #D69C00",
"b	c #FFD65A",
"c	c #6B6B6B",
"d	c #312900",
"e	c #AD7B00",
"f	c #FFCE4A",
"g	c #FFDE8C",
"h	c #B5ADAD",
"i	c #5A5A5A",
"j	c #423108",
"k	c #422900",
"l	c #FFDE73",
"m	c #8C8C94",
"n	c #734A6B",
"o	c #7B5273",
"p	c #6B4A73",
"q	c #ADADB5",
"r	c #FFC621",
"s	c #9C84A5",
"t	c #6B5200",
"u	c #DEA500",
"v	c #525242",
"w	c #6B4A31",
"x	c #A57B52",
"y	c #635A42",
"z	c #AD7B18",
"A	c #CEA56B",
"B	c #C6BDA5",
"C	c #E7D6A5",
"D	c #D6BD6B",
"E	c #844A7B",
"F	c #4A4229",
"G	c #9C7B21",
"H	c #B59C5A",
"I	c #6B526B",
"J	c #633963",
".+.+.+.+@#$%#@+&*=&+.@#@#@+.+&+.",
"+.+.+.+.#@%#@++-;.+.=#@#%$%+$=.=",
".+.+.+.+#=+.+.%>,*+$&++$@#%#%+.+",
"+.+.+.+$%+.+#%')>!$%+@$%#@+.+.+.",
".+++.+@+.#+.@+~,{]++=%$+@#@+.+#=",
"++.&=+&=&+@++^/~~~(#@#%$+'!.+=@&",
".=+.+.+&=$+++_:<):_+$%[!,,[=&++$",
"+&$%$%$@#+++}}|123=%$<){,,-&+$.%",
".+%$%$%#@+3}__4567+%=}~~,>+=%++.",
"=%$+.+#@++}_890ab7++%-)~)[@&=#.+",
"&=&=+.+$%+}89cdefg++h):-c_#=&@+&",
"=&=%.+.%+*}8cijefg+-)(+++$=&++.=",
"&=&$+.+$&+}8iidefg^)(=#@&+&+$@+#",
"=&=+&+$%++_8cijefg)(+=%++-^+%#=&",
"&=&=@#%$%+}8iikebl(==#@#@mn!'+#=",
"=+&=&+@+++_8ci0ef7!![[;[[>){{!'+",
".#=&=&$%$+|8iijeflo[~o(o<~~))p[+",
"#@+@#@+$%q}8cij4rls++@+@=8~~:$+.",
"@#.+@#@+#+}89ijtuf)-@+$++_:+%=+%",
"#@+&#@#@++}89cvwx|9,'#%=.++%=#.$",
"@#@+@#@#@+}_9cyzAB+:)-+%=#%$%%++",
"+&=#$%#=++}_99ju6C+%[)'-o*=%$$+.",
".=&=%$%#%+}_99d45D+=+8)pE'%$+@%$",
"+&=%#@#@++}_89FjGH++%-~~,(++.+$%",
".+&=&+@#=+3-88:/(}+=#I/~p,+.+&=#",
"%$=&=$#@+++}}:oJ)[-+&=m</~-+%=&@",
"$%#@+%$%#+++}9~~~~[%=#==.^[%#+$%",
"&+@#%$%#=@++++I/~o+#%$%&+++#@#@$",
"=.+.=&=%&+=++@9~~_=@#=#+.=%=#%$%",
"&+.+&=%$=#%+@+}Io+&=%#@$+&=&%=%#",
"=&+.+&$%+@#@+$=9-++.+%+%#=&=#&=@",
"&=&=%$+@#=&=&+&=++.++$@#=&+@#=%$"};
