/* XPM */
static char * listOffsets_xpm[] = {
"32 32 115 2",
"  	c None",
". 	c #CECEC6",
"+ 	c #BDBDBD",
"@ 	c #CEBDB5",
"# 	c #BDC6C6",
"$ 	c #BDBDC6",
"% 	c #CEC6BD",
"& 	c #BDC6BD",
"* 	c #C6BDC6",
"= 	c #BDB5AD",
"- 	c #ADADAD",
"; 	c #9CB59C",
"> 	c #8C9C8C",
", 	c #7BA57B",
"' 	c #ADB5AD",
") 	c #A5B59C",
"! 	c #7B947B",
"~ 	c #9CAD9C",
"{ 	c #7B8C7B",
"] 	c #9CB5AD",
"^ 	c #9C9494",
"/ 	c #ADA59C",
"( 	c #8CAD84",
"_ 	c #9C8C7B",
": 	c #7B6B5A",
"< 	c #7B634A",
"[ 	c #8C735A",
"} 	c #7BA584",
"| 	c #7B3918",
"1 	c #7B4229",
"2 	c #846B5A",
"3 	c #8C7B73",
"4 	c #8C736B",
"5 	c #8C847B",
"6 	c #BDADAD",
"7 	c #6B2100",
"8 	c #6B2910",
"9 	c #7B5A4A",
"0 	c #6B3921",
"a 	c #9C7B73",
"b 	c #A59C94",
"c 	c #7B5239",
"d 	c #848C84",
"e 	c #9C8C84",
"f 	c #7B7B7B",
"g 	c #7B3921",
"h 	c #9C948C",
"i 	c #9C9CA5",
"j 	c #848C94",
"k 	c #9CB5BD",
"l 	c #004A94",
"m 	c #849C9C",
"n 	c #42A5E7",
"o 	c #088CE7",
"p 	c #087BC6",
"q 	c #108CDE",
"r 	c #2994D6",
"s 	c #6394AD",
"t 	c #7BA5C6",
"u 	c #39A5EF",
"v 	c #185A8C",
"w 	c #5A6B7B",
"x 	c #4A637B",
"y 	c #08295A",
"z 	c #084A84",
"A 	c #0884D6",
"B 	c #089CFF",
"C 	c #0894E7",
"D 	c #086BAD",
"E 	c #1084CE",
"F 	c #006BBD",
"G 	c #297BB5",
"H 	c #315A7B",
"I 	c #9CA58C",
"J 	c #08294A",
"K 	c #10A5FF",
"L 	c #08396B",
"M 	c #084273",
"N 	c #085A9C",
"O 	c #007BDE",
"P 	c #006BC6",
"Q 	c #428CBD",
"R 	c #425A73",
"S 	c #00528C",
"T 	c #427394",
"U 	c #18426B",
"V 	c #08315A",
"W 	c #63ADDE",
"X 	c #186394",
"Y 	c #005AAD",
"Z 	c #8CB5C6",
"` 	c #109CF7",
" .	c #29CEFF",
"..	c #10A5EF",
"+.	c #42EFFF",
"@.	c #31D6FF",
"#.	c #4A4A5A",
"$.	c #18395A",
"%.	c #3984B5",
"&.	c #00397B",
"*.	c #1094EF",
"=.	c #946B52",
"-.	c #317BA5",
";.	c #8C6B63",
">.	c #C6B5AD",
",.	c #298CD6",
"'.	c #635A52",
").	c #002963",
"!.	c #001852",
"~.	c #849C7B",
"{.	c #737B84",
"].	c #3994D6",
"^.	c #5A4A4A",
"/.	c #293952",
"(.	c #424A63",
". + @ # $ % + & * + . + + . + $ = # + * & * & * & * & * $ % $ & ",
"$ + # $ + $ . $ + . + & $ + & - ; & * & * & * & * & & + % $ & * ",
"+ . + % $ + + & @ $ $ @ # + $ > , ' + * & + & $ @ $ * # + & * & ",
"% + $ + + . + $ # $ @ # + $ ) ! , ~ & # @ $ * & # $ # @ & $ & * ",
"$ $ & * & + # @ $ & $ # @ # { ! , , + + # + & @ $ & $ $ % + * & ",
". & * & * ~ ~ ] + * # + # ^ { ! { { > @ $ & * # # / ( & $ # & * ",
"+ $ & * + ' ! ! , ; / & + _ : : < [ > # @ $ ; ~ , } ~ * & @ $ & ",
"+ . + + . + { , ! ! > $ = | 1 1 1 | 2 # ^ 3 4 [ 5 5 - & $ $ + . ",
"# + @ $ + + ^ ! ! ! ~ + 6 7 8 1 | 7 : $ 9 7 0 | | 0 + + & $ # + ",
"@ $ $ & $ % - { { ! } + $ _ _ < 4 a b # c | 1 0 8 0 - + * # @ & ",
"# @ # * + $ # - + + ~ ; + * . d ( * * + e : c 9 : f + + + % $ $ ",
"@ # $ + + . : g 1 1 1 1 h + $ 3 > # + ' ! ~ i j . & + @ # + + . ",
"# + % $ # $ : 7 g 0 | | ~ ~ k l m @ ] ! > + _ ^ $ @ # $ $ # + + ",
"+ # + + + ~ : | | g | | f n o p q r r s t u v w % + - + # @ $ % ",
"% $ + ~ ! { ~ - - x + _ y z A B o C A D E p z F G G ( ( - + & $ ",
"+ ( ! { ! ! ! , ] H ] I y y y J p K L M N E O P o o Q ( , } ; + ",
"$ - > { { { ! ~ - R % _ J L y L F E S y L M E p P P s > ! ! ~ + ",
"# @ $ ~ d { ~ @ i M T x L y L L F D U V y S N D F F W 5 m + + . ",
"@ # + $ % ~ - X F o o B F J y L X F L V L U F D N Y Z + + + + + ",
"$ $ . + + . U F o `  .` o z y V Y N V L L z D N D G = + + % $ # ",
"# + + + + - z F O ..+.@.` O #.U F x $.V V N D D Y %.. + # + & @ ",
"+ * & * # e &.N E *.*.q B %.=.9 < 2 $.L L X D Y P -.@ + # @ * # ",
". + + # @ ;.y N Y *.*.C o Q >.I 4 < L y y D D N P ,.. $ @ # $ $ ",
"+ * # @ d '.).M D D O p N 6 & > ~ b V !.&.z N Y F - + + # $ + % ",
"$ & * $ _ 9 '.L ).z z l - + * ~.~ @ & {.U v X X ].~ + & + & + $ ",
"# @ $ & + 5 4 ^././.(.- + ' ( ! ! ~ - . % 6 - / h { ' * & * + . ",
"@ # $ @ # - ' + >.>.. + $ ~ { { ! ! ~ + + + & & + ~ ( * $ & $ + ",
"# $ + # $ + + + & # + $ & * { { { { + + $ & & * + + * + # @ # @ ",
"# & % + & $ . + @ $ & * + & ^ { { ' + & * @ $ & & * $ % $ $ & $ ",
"$ @ $ # * & $ + $ # @ & $ + + d ! + # * & $ & $ @ $ & + # @ $ . ",
"# + + % $ @ # * & $ # @ # $ + > - + @ # + . $ @ # + $ & * # + + ",
"% + # $ & $ + & $ @ + # $ @ & * & + # + * + + # $ & % * + # @ # "};
