/* XPM */
static char * multiWayConstraintUI_xpm[] = {
"32 32 94 2",
"  	c None",
". 	c #C6C6BD",
"+ 	c #C6BDC6",
"@ 	c #BDC6C6",
"# 	c #BDC6BD",
"$ 	c #C6BDBD",
"% 	c #C6C6C6",
"& 	c #BDBDBD",
"* 	c #ADB5AD",
"= 	c #8CAD84",
"- 	c #7BA57B",
"; 	c #5A7B5A",
"> 	c #398C39",
", 	c #9CB59C",
"' 	c #8C9C94",
") 	c #397B39",
"! 	c #4A8C4A",
"~ 	c #6B9C73",
"{ 	c #396B39",
"] 	c #4A734A",
"^ 	c #428C39",
"/ 	c #8C9C8C",
"( 	c #7B9C7B",
"_ 	c #8C8C8C",
": 	c #4A5A4A",
"< 	c #395A39",
"[ 	c #4A6B4A",
"} 	c #5A8C52",
"| 	c #529C5A",
"1 	c #9CAD9C",
"2 	c #8CA594",
"3 	c #6B7B73",
"4 	c #6B6B63",
"5 	c #397B42",
"6 	c #7B7B7B",
"7 	c #9C9C9C",
"8 	c #398C42",
"9 	c #5A6B5A",
"0 	c #426B39",
"a 	c #525252",
"b 	c #ADADAD",
"c 	c #B5A594",
"d 	c #7B8C63",
"e 	c #5A844A",
"f 	c #427B39",
"g 	c #6B7B6B",
"h 	c #949C8C",
"i 	c #946B00",
"j 	c #FFBD08",
"k 	c #FFD66B",
"l 	c #FFE79C",
"m 	c #847B7B",
"n 	c #312900",
"o 	c #D69C00",
"p 	c #FFD65A",
"q 	c #396B42",
"r 	c #6B8C6B",
"s 	c #422900",
"t 	c #AD7B00",
"u 	c #FFCE4A",
"v 	c #FFDE8C",
"w 	c #6B8C73",
"x 	c #393100",
"y 	c #213121",
"z 	c #294229",
"A 	c #4A3908",
"B 	c #7B8C7B",
"C 	c #7B8C84",
"D 	c #4A4A4A",
"E 	c #6B9C6B",
"F 	c #395A42",
"G 	c #314A31",
"H 	c #425A39",
"I 	c #313931",
"J 	c #FFC621",
"K 	c #FFDE73",
"L 	c #C6B5A5",
"M 	c #8C8C94",
"N 	c #6B5200",
"O 	c #DEA500",
"P 	c #635A4A",
"Q 	c #525A21",
"R 	c #8C8C39",
"S 	c #C6B594",
"T 	c #296329",
"U 	c #5A4A42",
"V 	c #A58410",
"W 	c #D6BD6B",
"X 	c #94AD8C",
"Y 	c #8C6300",
"Z 	c #FFC618",
"` 	c #4A4231",
" .	c #9C7B21",
"..	c #B59C5A",
". + @ + # $ % & @ + # + . + # + * # + # + # + @ $ @ $ @ $ @ & % ",
"& @ $ # + @ & # + & + # + & + = - + & $ @ $ & # + # + $ # + . & ",
"% & & + # $ + # & . # + # + & ; > , + # $ @ . & # + # + + # + # ",
"+ # $ @ & + @ + & # + & + # ' ) ! ~ & # + & @ + # & + # & # & + ",
"+ & @ $ @ & # & % & # + @ & { ] > ^ & + # & & . + # + & @ $ @ & ",
"& @ $ # & / ( = & + & # & _ : { < [ } & @ $ @ + # / | & % & $ % ",
". $ + # + 1 { ! > ( 2 * & 1 3 4 5 6 7 & & @ ( } 8 > / # & % & & ",
"@ & # + & & 9 0 5 > a & b b c d e # & + # 4 f 8 > ] = $ @ & $ % ",
"+ @ & # + # g { : { / b 7 h i j k l & & # 7 9 { ! e + & & % & # ",
"& . & + # & 7 : < [ ! _ _ m n o p l & # + 1 ) : q r # & % & # + ",
"@ + . + & @ & 4 b / { ] 4 4 s t u v & $ 1 ) w 7 9 1 + & # + $ @ ",
"& + @ + # + # + & & _ < < a x t u v & ' ) g $ # & + & @ $ # @ $ ",
"% & & # + & # & + & b 4 y z A t u v / ) g # + + # & . + @ $ & # ",
"& # % # * r B @ & & 7 _ 9 y n t u v ) g # + & # & 7 / & + @ & % ",
"% & & r 5 { d + @ & b C 4 D s t u v ; # $ # + # + / { | = * % + ",
"& w { 0 { [ 5 ! ! ) ) < z y x t u v E E ~ E E ~ E } q ) > | = * ",
"& c g F : { { B 6 B 3 9 D G s t u v 9 ; [ [ g ; 9 [ < ] f [ B # ",
"@ + & C 4 H w + & & b _ 4 I A i J K - + @ $ # & & B : < B b & % ",
"+ & @ + # / b & & L b M G y x N O u { , & @ $ + # / B b & & @ & ",
"& @ & # + + & # + & b ; z : P Q R S g ) = # + # & + & & $ # & % ",
"% & . + & # & & & & ; T 4 3 U V W S + w 5 X & + @ & + # + + # & ",
"& @ & & # & b ) 2 } < C 6 3 A O p . & + B q = / ; * . & & # $ + ",
"% & % & + & w : 5 q / 7 6 6 n Y Z W L @ $ B ) [ ) / & % & @ & # ",
"& # + # + # 9 F 0 ) _ 7 _ 6 ` A  ...& + & 1 : { ) } @ & # $ # + ",
"% + # + & 1 < : < < ] b _ _ C ` r b & # + [ D { [ ) & & $ @ + # ",
"& + & & # _ : < 6 7 & b 7 6 [ < 5 ( = & & 7 / 9 G q = & % & # + ",
"@ & % % & / 7 & # $ & & b B < < < { C # & + & + b _ C . & + & # ",
"& % & & % & & % & # & & & & : : { 9 # & + # + # + # # + # + # + ",
"% & . & + & # + # + @ & & & g < H / + @ # & # + # + & @ $ @ $ # ",
"& % & % & @ + # + & $ # + # b : [ % # $ & % & # + & # $ @ & # + ",
"% & @ & % $ # $ @ $ @ $ + # & w 7 & + # + & % & @ . + & & % + # ",
"& + + # $ # & @ & # + @ & # + $ & @ & # & @ $ @ & + + # % & # + "};
