/* XPM */
static char *multiWayConstraintSystemUI[] =
{
/* width height ncolors chars_per_pixel */
"32 32 109 2",
/* colors */
"AA c #EFEFEFEFE7E7",
"BA c #EFEFEFEFDEDE",
"CA c #DEDEE7E7DEDE",
"DA c #DEDEDEDEDEDE",
"EA c #DEDEDEDECECE",
"FA c #D6D6DEDEBDBD",
"GA c #D6D6DEDEADAD",
"HA c #D6D6CECECECE",
"IA c #CECEDEDEADAD",
"JA c #CECED6D6CECE",
"KA c #CECECECECECE",
"LA c #CECECECEBDBD",
"MA c #C6C6D6D6B5B5",
"NA c #C6C6BDBDC6C6",
"OA c #C6C6BDBDBDBD",
"PA c #BDBDCECEB5B5",
"AB c #BDBDCECEADAD",
"BB c #BDBDCECE9C9C",
"CB c #BDBDC6C6C6C6",
"DB c #BDBDBDBDBDBD",
"EB c #B5B5BDBDADAD",
"FB c #B5B5BDBD9C9C",
"GB c #ADADCECE9494",
"HB c #ADADBDBDC6C6",
"IB c #ADADBDBD9C9C",
"JB c #ADADB5B5BDBD",
"KB c #ADADB5B5ADAD",
"LB c #ADADADADADAD",
"MB c #A5A5C6C68C8C",
"NB c #A5A5BDBD8C8C",
"OB c #A5A5ADADB5B5",
"PB c #A5A5ADAD9C9C",
"AC c #9C9CBDBD8484",
"BC c #9C9CB5B59C9C",
"CC c #9C9CADADBDBD",
"DC c #9C9CADAD9C9C",
"EC c #9C9C9C9C9494",
"FC c #9494BDBD7B7B",
"GC c #9494ADAD8C8C",
"HC c #94949C9C8C8C",
"IC c #8C8CB5B57B7B",
"JC c #8C8CADADBDBD",
"KC c #8C8CADAD8484",
"LC c #8C8CADAD7B7B",
"MC c #8C8C9C9C8C8C",
"NC c #8C8C9C9C7B7B",
"OC c #8C8C94949C9C",
"PC c #84849C9CADAD",
"AD c #84848C8C8484",
"BD c #84848C8C7B7B",
"CD c #7B7BA5A56B6B",
"DD c #7B7B9C9CB5B5",
"ED c #7B7B9C9CADAD",
"FD c #7B7B9C9C7B7B",
"GD c #7B7B9C9C6B6B",
"HD c #7B7B8C8C7B7B",
"ID c #7B7B8C8C6B6B",
"JD c #73737B7B7373",
"KD c #6B6B9C9CBDBD",
"LD c #6B6B9494ADAD",
"MD c #6B6B94946B6B",
"ND c #6B6B94945A5A",
"OD c #6B6B8C8C6363",
"PD c #6B6B8C8C5A5A",
"AE c #6B6B7B7B6B6B",
"BE c #6B6B7B7B5A5A",
"CE c #5A5A9C9C5A5A",
"DE c #5A5A8C8C5A5A",
"EE c #5A5A8484A5A5",
"FE c #5A5A7B7B8C8C",
"GE c #5A5A7B7B5252",
"HE c #5A5A6B6B5252",
"IE c #52529C9C4A4A",
"JE c #4A4A94944A4A",
"KE c #4A4A8C8C4A4A",
"LE c #4A4A7B7B4A4A",
"ME c #4A4A6B6B4A4A",
"NE c #4A4A5A5A4242",
"OE c #42427B7BADAD",
"PE c #424273739494",
"AF c #42426B6B3939",
"BF c #39398C8C4242",
"CF c #393973734242",
"DF c #31315A5A7373",
"EF c #292952527373",
"FF c #21218484C6C6",
"GF c #21217373B5B5",
"HF c #18187373B5B5",
"IF c #181852527B7B",
"JF c #10105A5A9494",
"KF c #10104A4A7B7B",
"LF c #08087B7BD6D6",
"MF c #08087B7BCECE",
"NF c #08086B6BADAD",
"OF c #080842426B6B",
"PF c #00009494F7F7",
"AG c #00008C8CF7F7",
"BG c #00008C8CEFEF",
"CG c #00008484DEDE",
"DG c #00006B6BC6C6",
"EG c #00006B6BBDBD",
"FG c #000063639C9C",
"GG c #00005A5AA5A5",
"HG c #00005A5A9C9C",
"IG c #000052528C8C",
"JG c #00004A4A8484",
"KG c #00004A4A7B7B",
"LG c #000039396363",
"MG c #000031315A5A",
/* pixels */
"LANANACBDBLANACBOACBOACBOACBOACBKBDBKADBNAPANAPANADBKADBNAPANANA",
"DBNAPADBNANADBDBCBOADBDBKADBCBHCFDPADBNAPANANANANAPADBCBDBNADBCB",
"NADBNACBPANADBLADBNAPANADBDBOADEBFLBDBDBNADBPANANANADBNAPANANADB",
"NAPACBDBNADBNANANAPANANANAPADCLEKEMDPACBDBCBNANAPANANAPANADBDBKA",
"CBNADBPANADBPANANANAPACBKAKAGECEIECEDBOAKADBDBNANADBNADBNAPANADB",
"NADBDBNAJBMCMCKCJBCBNAKAKALBIDIDIDPDNCKAKAPANACBNAKCCECBNANAPANA",
"PANAPANACBDCAFBFKELCBCKAEAOCIAEBACEBEBHAKAKAKCCEBFBFFDDBCBDBNAPA",
"NANANAPADBDBMEAFKECEBDEALBKGDGFFFAOBBACADAMCPDIEKECFDCDBDBCBDBNA",
"NAPANANADBNAHDMEGEODEBCAJBIGHGBGCGLFFFDDOBLAFDBEJEDEDBLADBDBCBDB",
"PANANADBCBNADCHEBEKCBBBALDGFMFCGBGPFBGBGEGOEFCODGEGDNANACBOADBKA",
"NADBCBDBNAPANAHDKALAIANFMFLFBGBGBGBGCGHGJGLGEBOAIDLBDBPANADBDBDB",
"PADBNANAPANAKAEAEAKDEGEGNFKGIGMFHFJGKGDFFEOBBADAKAPACBNADBNANALA",
"NACBDBCBNAKAKAKACCNFEGHGKFNFMGKGKGDFOCGAFACCEDEADANAKADBPANADBNA",
"CBDBDBNAEBFDGCDANFNFIGOFHBGALGDFIAEABBABBALBOEPCHAEBGCJBNANAPANA",
"OALAJBMDLEPDGCBAMFHGIFBABAEANBNBICFCIBDADACAEEHGDAPBGENDKCKBNAPA",
"JBAELEAFMEDELCACMFIFIABBGBFCLCLCCDLCNBABIAMAFENFBBLCPDJEBFCEKCJB",
"LAECHENEMEBEGDEBGGPEEAABDBIBNCCDLCLCNBABBBGAJFDGIBNCGEKEMEAFFDDB",
"NACBCBADAEBEDCDBFGEECABAEAIBFCACACMBJABADBIFGGHFJCPBAEMEHDLBNANA",
"NADBNACBLAMCPADAPCOEOBBAABBBDBIAFAMGLACCOFIGNFEGBAKBNCLBDBDBPANA",
"PANACBDBDBKAKAHABAEDJCFAIAOCDFKFKGLGGGIFHGEGEGLBEAKAKANAPANANACB",
"NAPANANADBKAOAKAEABAOBFEEFKGJGEGMFHGKGNFEGHFKDDADALANACBNADBNADB",
"NANADBNAPADBLBCEABFBLGKGNFLFBGBGAGCGLFMFNFHBMAPAGDDBPAKADBCBDBCB",
"PANADBDBNADBHDGEMDLCOEEGBGBGBGAGCGMFHFLDBALAACGDPDKCNADBNADBLANA",
"NAPADBCBDBKAHEMEPDGDLAJBKDFFFFCGBGHGJFOBAAMABDDENAMDNAPADBKADBDB",
"NANACBDBNAECMENEMEPDLCDADABACAFAFFHFKGJBDANCBEGELELEDBNADBDBNAPA",
"DBDBOACBDBMCNENEJDLBKALAKAABIBACBBHBOCDBEAEBDCHENEAFDCNAPANAPANA",
"CBNADBLANAADDCNAPANANAKALAECPDGDFDNCIBDAKANAKANALBMCHDPANANANADB",
"NAPANADBCBDBDBDBNAPACBDBDBKAHEHEBEODKAKAPAKADBCBDBNAPANAJBNADBNA",
"NANAPANADBNAPANANANADBCBDBDBJDMEMEDCOADBKADBNADBCBDBNADBCBPANAPA",
"NAPANADBNADBNACBDBDBNAPANANALBMEMELADBKADBNADBNAPADBDBCBDBNADBNA",
"PANANAPANANADBDBCBDBDBNAPANADBAEECNADBDBDBCBPANANANAPANANAPANANA",
"NACBJBNANAPADBCBDBNAPANANADBDBCBDBCBDBNALADBNACBDBNANAPADBNANAPA",
};
