/* XPM */
static char * setMWKeyframe_xpm[] = {
"32 32 68 1",
" 	c None",
".	c #C6C6C6",
"+	c #BDBDBD",
"@	c #C6C6BD",
"#	c #BDBDC6",
"$	c #BDC6BD",
"%	c #C6BDBD",
"&	c #C6BDC6",
"*	c #BDC6C6",
"=	c #9CB59C",
"-	c #9CAD9C",
";	c #8C9C8C",
">	c #7BA57B",
",	c #ADBDAD",
"'	c #ADADAD",
")	c #7B9C7B",
"!	c #7B8C7B",
"~	c #52635A",
"{	c #425A4A",
"]	c #6B737B",
"^	c #9C9C9C",
"/	c #394A42",
"(	c #293942",
"_	c #181821",
":	c #182931",
"<	c #6B6B73",
"[	c #8CAD8C",
"}	c #ADB5B5",
"|	c #5A5A63",
"1	c #5A6B63",
"2	c #8C8C8C",
"3	c #081018",
"4	c #313942",
"5	c #7B8C84",
"6	c #4A4A52",
"7	c #394A52",
"8	c #7B9C84",
"9	c #293131",
"0	c #000810",
"a	c #63736B",
"b	c #7BA584",
"c	c #7B7B7B",
"d	c #212931",
"e	c #4A5A52",
"f	c #182929",
"g	c #9CA5A5",
"h	c #8C8C94",
"i	c #7B7B84",
"j	c #A5A59C",
"k	c #525A5A",
"l	c #94A58C",
"m	c #A5B59C",
"n	c #B5524A",
"o	c #CE4242",
"p	c #BD5A52",
"q	c #CE0000",
"r	c #C62118",
"s	c #DE0808",
"t	c #C63939",
"u	c #CE6363",
"v	c #BD3131",
"w	c #D62929",
"x	c #CE7B7B",
"y	c #CE2921",
"z	c #D64A4A",
"A	c #BD2118",
"B	c #849C7B",
"C	c #101818",
".+@#@#$%$&$&$&$&+$#@#@#@#%*%$%*$",
"+%#@#@&*&$&$%*%=-+*+@#.+%$%*&*+&",
"$*%#@#+@+&$+#+*;>,%#+%$#$&$%$%*+",
"#%#@++.+#$&+@+')>-+.+*#$&$&++*%.",
".+$#@$+.&+$*#@!~{{]^++%&$+.&$%#$",
"#.+&+'-=+.+%+'/(___:<^+$&-[$&#$%",
"$#@#+,!)>-,}&{|1!^2<345[)>-+.+&*",
"&@#$&+!)))2@+67-8+$#;49!>),&+$.+",
"%*%$#@^!!)^$+04-).#%&29ab;+$%#+@",
"$#%#@+'!c)[++|(^;+%$+,/6![+$+.%*",
"&$*%+*+;,')[+cda)#$&,)c(2'$&*++&",
"$+&$#.++%+'![+e_f2+,!;54g*%#%%*@",
".#@+@+.+#@#')[^0(45!;h6h++*%*$%+",
"+@+#+;-&$#@+'8/d__d(d(ci+,j++%#.",
"*%+[))^$+.+.%^/e18kk|2g.#-![=+$#",
"+^)!!!)b))>)897~))l--[--l;))>bm+",
"+,2!!!!-^-j-64/8));;nop8;!!))!-+",
"@+*^;!l+@+#<_e;)!)=+qro++^!!^++.",
"#%+.+-++#@ce11'!--),qso**'^,++++",
"$&$%+&+#++/(e'+;[+^)qst.+++#%$+.",
"%$+*@+&$+kd4,++8nuvpsqwuuux$&%*+",
"$#.%##,)1__^+&+8yqqqqqqsssz&+*+.",
"&$+.+@^!(d_h++.;Aqqqqqsqqsu$.+.+",
"$%&+.#;9d_:f]+$2-#+%tqv8;[$*%++.",
".#$&+,d_f:d<2'+B-+++ysv!))+#+.++",
"+$&+$iC:_::h+,;))-,#yqv2!!,%#@#@",
"%*%*%21<#h|'+g!!!!-+yyo*}-^$&+.+",
"*%$%*++&$&}'&+5!!)#%##*+%#$&$$+.",
"&#$&+*%$&+*+$.^!!'+$#*+*+%#$&+*+",
"+$&+*&$&+$%.%#,!!+$&+%*%*.$&+.+.",
"@#$%+.#$#@#+*%#^'$#@#$%#%+.+.+%+",
"&$%#@+$&@#%$%#@+$#@+.%#%**+&$+&*"};
