/* XPM */
static char * setNewMWDriver_xpm[] = {
"32 32 47 1",
" 	c None",
".	c #C6BDC6",
"+	c #BDC6BD",
"@	c #BDBDC6",
"#	c #C6C6BD",
"$	c #C6BDBD",
"%	c #BDC6C6",
"&	c #BDBDBD",
"*	c #C6C6C6",
"=	c #ADADAD",
"-	c #9CAD9C",
";	c #8C9C8C",
">	c #7BA57B",
",	c #ADBDAD",
"'	c #7B9C7B",
")	c #8CAD8C",
"!	c #000000",
"~	c #7B8C7B",
"{	c #31BDFF",
"]	c #21ADF7",
"^	c #189CEF",
"/	c #9C9C9C",
"(	c #A5A59C",
"_	c #8C8C84",
":	c #088CE7",
"<	c #A5B59C",
"[	c #FF0000",
"}	c #9CB5A5",
"|	c #7B9C84",
"1	c #7B7B7B",
"2	c #7BA584",
"3	c #FFFFFF",
"4	c #EFEFE7",
"5	c #6B6B6B",
"6	c #6B7B6B",
"7	c #EFEFF7",
"8	c #E79494",
"9	c #CE0800",
"0	c #DE3939",
"a	c #9CB59C",
"b	c #84A57B",
"c	c #5A6B5A",
"d	c #5A5A5A",
"e	c #4A5A4A",
"f	c #C62118",
"g	c #CE2921",
"h	c #ADB5B5",
".+@#@#.+.+$%$%$%&&.%&*&*&.+$%$+%",
"+@#&*&+.+$*&%$+=-@+&*&*&.+$%$%&.",
".+@$@+$@$@+.&+$;>,&$++&*&%$+$%#&",
"+$+.+$%.+#&$%&='>).+.@*&*&#@+$&*",
".+@&*&$!!!!!$*~''>&&%$&&&*@.&%$&",
"+@&#&=-!{]]!&-~~~~;+.#+.*-)+*&.%",
".#@&+='!]{^!.&;;'/(%&@-)'>-&.&+.",
"+@$%$+_!^^:!+&&-'&*&$;''>'<.&+.+",
".+@$%&/!!!!!.&./>.@#@=~~')&@#@%$",
"&#&*&&=~_!)&[[[[[[[[[,'~'/+$+$.+",
"*@#&#@&;=!')[%%-'&%&['/-_}@*&%&.",
"@$&.@*&&*!=|[&=_~/1,[;&*@*&$%$&*",
"+%%+$&#@&!*=[2(3345'[&+@#&+@#@#@",
"$&$@&)-.*!!![6~373338#@$@,(&@$&+",
"*@&-'~;+@!+.[,6343903333&/')a&+.",
"&-'6~''>b!2'[|cde30999f3-;''')a&",
"&=;~~~~/-!(-[-~''|39993|;~~''~-&",
"*&&=_~-+.!%&[)~~1'3999g3&/~~/,&*",
"+$+&@-,.&!$%[';33739399g3=/,&.@+",
"$%@.+&.&*!!![1/334=3[333&&&&&&%$",
"%$&+&*&&&*;'[%_744d/[}3@+@+.+$.+",
".&#.%&=',;',[@1cdde%['-=|&$+@#+@",
"#@@+$&-~''=&[*@;-h@&[/'~'-&.%&$%",
"@$+$@+_~~'=@[[[[[[[[[=~'';#+&.&*",
"*&.+$,~~~6)&%&+|-@+@+'1~~'&@+$%&",
"&.+@&=1~_,@+$}/''-=#@=-_~'}$&#@#",
"*&$++/,&@$.+@(~~'~-&&@@&h-/%.&.+",
"&+%.&*@&*&+&#@~~~'&+.*$+&.++$++.",
"*&$+.&$@&#@%$+/~~=&@&+.%.&.*&@+&",
"&$%&.+@#+.&#@$h~~&%$%$&.++*&@*&*",
"*&.+&.+@.+$@+@$/=+&%$+%$@$%$+&.+",
"&*+$%$%$+.%&#.+&+&..+&.+$%$%&.*&"};
